<?xml version="1.0" standalone="no"?>
<!DOCTYPE svg PUBLIC "-//W3C//DTD SVG 20010904//EN"
 "http://www.w3.org/TR/2001/REC-SVG-20010904/DTD/svg10.dtd">
<svg version="1.0" xmlns="http://www.w3.org/2000/svg"
 width="900.000000pt" height="657.000000pt" viewBox="0 0 900.000000 657.000000"
 preserveAspectRatio="xMidYMid meet">
<metadata>
Created by potrace 1.10, written by Peter Selinger 2001-2011
</metadata>
<g transform="translate(0.000000,657.000000) scale(0.100000,-0.100000)"
fill="#d42429" stroke="none">
<path d="M4115 6182 c-80 -23 -157 -53 -175 -67 -8 -7 -37 -25 -63 -40 -136
-78 -246 -242 -292 -435 -24 -103 -27 -163 -10 -271 9 -57 23 -117 32 -134 8
-16 20 -48 27 -70 15 -47 122 -192 167 -226 73 -55 102 -86 96 -102 -3 -9 -30
-28 -59 -43 -29 -14 -67 -37 -85 -50 -17 -13 -35 -24 -40 -24 -4 0 -30 -20
-58 -45 -27 -25 -53 -45 -57 -45 -10 0 -147 -174 -170 -217 -56 -106 -93 -188
-103 -228 -14 -61 -44 -72 -78 -27 -78 100 -227 223 -312 259 -24 10 -49 28
-56 39 -10 20 -6 26 31 60 23 22 48 42 55 46 7 4 29 32 50 63 21 30 42 55 47
55 4 0 8 7 8 16 0 9 13 44 29 78 39 82 55 202 41 316 -6 47 -16 99 -22 115
-16 43 -52 119 -59 125 -4 3 -9 14 -13 25 -10 34 -158 172 -219 204 -78 42
-164 71 -209 71 -20 0 -47 4 -60 9 -26 9 -213 -13 -240 -29 -10 -5 -23 -10
-30 -10 -20 0 -107 -48 -163 -90 -58 -43 -131 -117 -150 -152 -35 -63 -55
-106 -55 -118 0 -7 -8 -22 -17 -32 -25 -27 -26 -350 -1 -388 8 -14 24 -47 34
-75 16 -45 109 -185 123 -185 3 0 25 -18 49 -40 43 -41 50 -66 22 -81 -82 -43
-183 -110 -224 -148 -27 -25 -57 -53 -66 -62 -67 -63 -169 -247 -211 -379 -24
-75 -24 -75 -24 -602 0 -419 3 -530 13 -540 10 -10 178 -14 830 -18 l817 -5 5
-160 c3 -88 9 -166 14 -174 26 -41 34 -41 993 -41 506 0 935 5 957 9 21 5 44
15 50 21 7 7 12 69 14 168 3 131 6 159 19 170 13 9 194 12 824 12 734 0 809 1
824 16 15 15 16 67 13 553 -2 388 -6 542 -15 556 -6 11 -19 45 -28 75 -15 51
-53 138 -65 150 -3 3 -15 23 -27 46 -24 44 -51 79 -133 167 -53 57 -191 157
-238 171 -13 4 -28 18 -34 32 -10 21 -6 28 40 69 117 106 190 244 213 406 17
121 -5 249 -62 367 -49 99 -153 211 -241 259 -110 59 -181 76 -318 77 -106 0
-136 -3 -200 -24 -237 -77 -394 -268 -429 -524 -11 -80 7 -241 32 -291 9 -16
21 -45 28 -64 7 -19 28 -54 46 -78 18 -24 33 -45 33 -48 0 -3 29 -33 64 -68
75 -73 74 -88 -7 -127 -29 -13 -77 -43 -107 -66 -73 -56 -187 -169 -195 -193
-7 -23 -39 -33 -60 -17 -8 6 -18 29 -22 51 -3 22 -16 63 -29 91 -13 28 -24 58
-24 67 0 10 -3 17 -8 17 -4 0 -19 21 -32 48 -70 134 -242 294 -398 372 -56 28
-82 53 -82 78 0 5 30 32 66 58 57 42 184 186 184 209 0 4 14 36 30 73 29 62
46 140 57 262 9 101 -30 263 -87 359 -16 29 -30 54 -30 56 0 10 -47 62 -111
125 -78 78 -153 124 -263 163 -71 26 -97 30 -216 33 -106 2 -148 -1 -195 -14z
m322 -147 c206 -70 338 -196 404 -385 34 -95 33 -246 -1 -350 -76 -232 -305
-401 -545 -401 -170 0 -288 51 -412 176 -46 47 -83 91 -83 99 0 7 -9 25 -20
39 -11 14 -20 31 -20 39 0 8 -4 18 -10 24 -5 5 -17 55 -27 110 -15 88 -15 110
-4 175 8 41 31 111 53 158 33 69 55 100 123 168 46 46 89 83 95 83 6 0 28 11
50 25 22 14 47 25 56 25 9 0 30 7 47 15 61 28 212 28 294 0z m-1767 -565 c19
-7 40 -15 45 -17 49 -19 172 -122 186 -155 6 -16 15 -28 20 -28 24 0 79 -175
79 -252 0 -98 -40 -217 -103 -306 -30 -42 -165 -142 -192 -142 -7 0 -16 -4
-20 -9 -3 -6 -27 -13 -53 -16 -26 -4 -61 -11 -79 -16 -48 -15 -200 14 -270 53
-195 104 -289 323 -237 551 20 86 82 187 149 242 53 43 162 101 202 108 50 9
237 -1 273 -13z m3529 4 c36 -9 89 -32 116 -50 55 -36 135 -110 135 -124 0 -5
11 -21 24 -35 47 -51 69 -133 69 -264 0 -118 -2 -126 -44 -201 -5 -8 -15 -28
-23 -45 -46 -96 -193 -197 -316 -215 -30 -4 -62 -11 -71 -14 -38 -16 -236 35
-254 65 -4 5 -14 9 -23 9 -10 0 -47 30 -84 68 -111 113 -156 243 -138 405 5
41 13 84 18 94 5 10 20 40 33 67 49 101 221 238 314 249 76 10 185 6 244 -9z
m-1759 -745 c19 -6 51 -15 70 -19 62 -15 134 -43 172 -67 21 -13 42 -23 47
-23 5 0 16 -6 23 -12 7 -7 33 -26 58 -43 129 -87 273 -292 288 -409 2 -23 10
-47 15 -55 23 -27 29 -215 33 -901 l4 -705 -21 -17 c-20 -17 -75 -18 -843 -18
-650 0 -826 3 -840 13 -16 12 -17 60 -14 792 3 696 5 784 19 820 9 22 25 67
35 100 9 33 38 93 63 135 48 78 168 212 211 235 14 7 35 23 47 34 12 12 33 26
45 32 13 5 43 21 68 34 25 14 52 25 61 25 9 0 30 7 45 15 16 8 36 15 45 15 8
0 19 4 25 9 19 20 289 27 344 10z"/>
<path d="M3776 1584 c-3 -9 -6 -101 -6 -205 0 -125 -4 -189 -10 -189 -6 0 -29
17 -51 38 -84 77 -172 104 -282 83 -176 -32 -293 -246 -242 -439 33 -122 119
-224 223 -265 97 -39 258 1 319 78 21 26 30 31 40 23 7 -6 13 -17 13 -26 0 -8
12 -30 26 -49 20 -26 32 -33 52 -31 21 2 28 9 30 29 2 14 -4 31 -12 39 -14 11
-16 67 -16 455 0 244 -3 450 -6 459 -4 10 -18 16 -39 16 -21 0 -35 -6 -39 -16z
m-210 -348 c70 -18 139 -68 174 -124 28 -45 30 -52 30 -163 0 -134 -8 -156
-74 -217 -39 -36 -62 -47 -143 -65 -72 -16 -200 47 -243 121 -65 108 -64 227
2 338 34 58 119 111 198 123 3 0 28 -5 56 -13z"/>
<path d="M4081 1581 c-25 -47 -4 -111 37 -111 35 0 43 15 40 71 -3 53 -4 54
-35 57 -23 2 -34 -2 -42 -17z"/>
<path d="M6747 1593 c-4 -3 -7 -30 -7 -59 0 -49 2 -54 25 -60 15 -4 32 -1 40
6 18 15 20 91 3 108 -13 13 -50 16 -61 5z"/>
<path d="M7850 1581 c-11 -22 -14 -498 -3 -793 l6 -188 32 0 c41 0 45 13 45
137 l0 91 71 66 c44 40 76 63 85 59 14 -5 125 -149 177 -230 14 -21 37 -51 51
-68 14 -16 30 -36 36 -42 12 -14 80 -18 80 -5 0 12 -41 71 -167 246 -62 85
-113 159 -113 163 0 5 61 69 134 142 74 74 133 138 130 143 -3 4 -21 8 -41 8
-32 0 -47 -11 -127 -87 -50 -48 -135 -132 -188 -187 -67 -69 -101 -97 -112
-93 -14 6 -16 43 -16 320 0 230 -3 316 -12 325 -18 18 -56 14 -68 -7z"/>
<path d="M490 1570 c-164 -42 -273 -151 -334 -335 -25 -78 -22 -228 7 -309 75
-204 239 -331 429 -329 43 0 84 5 90 11 7 5 27 13 43 16 17 4 59 29 94 56 36
28 70 50 77 50 9 0 14 -20 16 -62 3 -60 4 -63 28 -63 l25 0 0 230 0 230 -138
3 -138 3 3 -28 3 -28 97 -3 c116 -3 122 -9 116 -107 -3 -49 -9 -69 -31 -94
-30 -37 -120 -101 -140 -101 -7 0 -23 -7 -35 -16 -16 -11 -47 -16 -110 -16
-81 -1 -92 2 -159 36 -84 43 -127 90 -175 192 -32 66 -33 74 -32 181 1 113 1
113 45 200 46 92 62 113 119 154 60 43 99 54 195 53 80 -1 97 -5 152 -32 38
-20 75 -49 99 -77 40 -50 67 -55 90 -20 12 19 9 26 -30 76 -34 43 -60 64 -117
92 -64 32 -86 37 -164 41 -49 3 -106 1 -125 -4z"/>
<path d="M5958 1553 c-3 -10 -3 -228 0 -486 l5 -467 321 2 321 3 3 33 c2 17 2
33 0 34 -2 1 -129 5 -283 8 l-280 5 -5 440 -5 440 -36 3 c-28 2 -37 -1 -41
-15z"/>
<path d="M2160 1311 c-51 -8 -169 -67 -177 -88 -3 -7 2 -22 11 -32 15 -17 19
-16 88 18 57 29 86 36 142 39 67 4 74 2 120 -30 27 -19 57 -49 67 -68 25 -51
33 -121 15 -145 -12 -17 -17 -18 -54 -6 -28 10 -76 12 -158 9 -104 -4 -126 -8
-171 -31 -85 -44 -118 -106 -108 -204 6 -55 11 -67 47 -103 22 -23 58 -50 81
-61 86 -38 235 -15 317 49 57 45 58 46 73 10 19 -44 50 -70 79 -66 31 4 36 48
9 85 -18 25 -20 48 -23 238 -4 174 -7 216 -22 246 -22 46 -78 103 -120 122
-38 18 -155 28 -216 18z m193 -363 c74 -14 92 -37 84 -108 -11 -95 -55 -141
-169 -174 -72 -21 -106 -20 -160 3 -54 23 -76 47 -93 104 -13 42 -12 49 8 88
29 56 59 76 137 93 67 14 94 13 193 -6z"/>
<path d="M4548 1311 c-52 -8 -178 -68 -178 -86 0 -6 6 -19 13 -29 13 -18 16
-18 63 4 126 56 200 63 280 26 64 -30 94 -75 101 -154 7 -73 -4 -85 -67 -71
-75 17 -219 15 -274 -5 -83 -29 -128 -68 -153 -131 -36 -93 19 -208 124 -256
84 -38 227 -15 317 52 50 36 64 36 77 0 11 -31 47 -61 73 -61 24 0 30 38 9 68
-16 24 -19 56 -23 252 -5 220 -6 226 -31 270 -16 27 -48 60 -80 82 -48 33 -63
38 -129 42 -41 2 -96 1 -122 -3z m247 -372 c28 -13 30 -19 33 -73 2 -33 -2
-72 -9 -88 -15 -36 -82 -94 -117 -101 -15 -3 -48 -11 -74 -18 -106 -28 -228
53 -228 151 0 47 29 89 85 122 49 28 53 29 165 25 73 -2 126 -8 145 -18z"/>
<path d="M5440 1311 c-60 -11 -99 -32 -164 -92 -30 -27 -56 -49 -59 -49 -4 0
-7 30 -9 68 l-3 67 -40 0 -40 0 0 -92 c0 -51 1 -210 3 -354 l2 -260 38 3 37 3
3 210 c2 206 3 211 29 264 15 29 47 71 72 92 100 88 258 88 293 1 5 -15 15
-36 21 -47 7 -12 13 -118 17 -270 l5 -250 38 -3 37 -3 0 262 c0 242 -2 267
-21 323 -30 86 -75 123 -154 129 -33 3 -80 2 -105 -2z"/>
<path d="M7345 1311 c-65 -13 -114 -39 -162 -87 -25 -25 -49 -42 -54 -37 -4 4
-9 33 -11 63 l-3 55 -38 3 -37 3 2 -353 3 -353 36 -3 36 -3 6 68 c4 37 7 138
7 223 0 135 3 161 20 194 38 75 97 120 191 147 52 14 61 14 99 0 51 -19 79
-53 92 -112 6 -24 13 -150 17 -279 l6 -235 35 0 35 0 3 235 c2 152 -1 256 -9
295 -13 68 -49 138 -82 160 -27 17 -137 26 -192 16z"/>
<path d="M1159 1301 c-2 -6 -2 -130 1 -275 4 -193 8 -268 18 -278 6 -6 12 -20
12 -30 0 -25 63 -92 104 -112 44 -21 115 -20 189 2 44 12 74 31 118 71 33 29
65 51 73 48 7 -3 16 -24 20 -46 7 -46 39 -81 73 -81 19 0 23 5 23 34 0 18 -7
39 -15 46 -13 11 -15 59 -15 322 l0 309 -37 -3 -38 -3 -5 -230 c-5 -230 -5
-230 -32 -272 -60 -92 -173 -147 -275 -133 -41 6 -93 42 -93 64 0 6 -8 25 -17
41 -15 26 -17 65 -17 280 l-1 250 -41 3 c-23 2 -44 -2 -45 -7z"/>
<path d="M2747 1304 c-9 -9 -10 -666 -1 -688 8 -21 60 -21 68 0 3 9 6 109 6
222 0 180 3 212 19 247 32 69 118 131 197 142 43 6 44 6 44 44 0 38 -1 39 -35
39 -49 0 -123 -40 -168 -90 -20 -23 -43 -40 -50 -38 -7 3 -14 29 -17 64 -5 54
-7 59 -30 62 -14 2 -29 0 -33 -4z"/>
<path d="M4078 1303 c-1 -4 -1 -163 2 -353 l5 -345 35 0 35 0 0 350 0 350 -37
3 c-20 2 -38 -1 -40 -5z"/>
<path d="M6745 1298 c-3 -7 -4 -166 -3 -353 l3 -340 35 0 35 0 0 350 0 350
-33 3 c-20 2 -34 -2 -37 -10z"/>
</g>
</svg>
